<?xml version="1.0" encoding="utf-8"?>
<svg xmlns="http://www.w3.org/2000/svg" xmlns:xlink="http://www.w3.org/1999/xlink" version="1.1">
    <!--
      This would be the elegant way, but chrome cannot handle masks in external SVGs.
      See https://bugs.chromium.org/p/chromium/issues/detail?id=109212
    -->
    <!--
    <symbol id="icon" viewBox="0 0 26 32">
        <g id="Fire-Icon">
            <mask id="mask">
                <rect x="0" y="0" width="100" height="100" fill="white"/>
                <path d="M7.2830232,8.93885547 L8.91906464,8.93885547" stroke="black" stroke-width="2" stroke-linecap="round"/>
                <path d="M7.2830232,15.7798836 L17.5412669,15.7798836" stroke="black" stroke-width="2" stroke-linecap="round"/>
                <path d="M7.2830232,22.6209117 L17.5412669,22.6209117" stroke="black" stroke-width="2" stroke-linecap="round"/>
                <path d="M24.3031318,10.6474633 L16.7826187,10.6474633 C15.2742552,10.6474633 14.051485,9.42469306 14.051485,7.91632957 L14.051485,0.395816478" id="Path" stroke-linecap="square" stroke="black" stroke-width="2" fill="none"/>
            </mask>
            <path d="M21.848475,31.6653183 L2.89005487,31.6653183 C1.32717435,31.6653183 0.104050469,30.3742431 0.104050469,28.8793139 L0.104050469,2.7860044 C0.104050469,1.22312388 1.39512568,0 2.89005487,0 L14.7135857,0 C15.4610503,0 16.2085149,0.271805307 16.6841742,0.815415921 L23.8190635,7.95030523 C24.3626741,8.49391584 24.6344794,9.17342911 24.6344794,9.9208937 L24.6344794,28.8793139 C24.6344794,30.3742431 23.4113555,31.6653183 21.848475,31.6653183 Z" id="path-1" fill="currentColor" mask="url(#mask)" />
        </g>
    </symbol>
    -->
    <symbol id="icon" viewBox="0 0 26 32">
        <path d="m 15 0 c 0.7 0.1 1.233 0.331 1.7 0.8 l 7.1 7.1 c 0.5 0.5 0.8 1.1 0.8 1.8 h -7.9 c -1 0 -1.7 -0.8 -1.7 -1.7 V 0.4 z M 24.65 11.647 v 17.23 c 0 1.5 -1.2 2.8 -2.8 2.8 h -19 c -1.234 -0.017 -2.694 -1.094 -2.7 -2.8 V 2.8 C 0.1 1.2 1.4 0 2.9 0 h 10.15 v 7.5 c -0.135 2.533 1.669 4.119 3.7 4.15 h 7.9 z M 6.3 8.9 c 0 0.6 0.4 1 1 1 h 1.6 c 0.5 0 1 -0.4 1 -1 c 0 -0.5 -0.5 -1 -1 -1 H 7.3 C 6.7 7.9 6.3 8.4 6.3 8.9 z M 18.5 22.6 c 0 -0.5 -0.4 -1 -1 -1 H 7.3 c -0.6 0 -1 0.5 -1 1 s 0.4 1 1 1 h 10.3 C 18.1 23.6 18.5 23.2 18.5 22.6 z M 18.5 15.8 c 0 -0.6 -0.4 -1 -1 -1 H 7.3 c -0.6 0 -1 0.4 -1 1 s 0.4 1 1 1 h 10.3 C 18.1 16.8 18.5 16.3 18.5 15.8 z" fill="currentColor" />
    </symbol>
</svg>
